Coordinates
version=1
nRows=7
nColumns=63
inDegrees=yes

Units are S.I. units (second, meters, Newtons, ...)
If the header above contains a line with 'inDegrees', this indicates whether rotational values are in degrees (yes) or radians (no).

endheader
time	pelvis_tilt	pelvis_list	pelvis_rotation	pelvis_tx	pelvis_ty	pelvis_tz	hip_flexion_r	hip_adduction_r	hip_rotation_r	knee_angle_r	knee_angle_r_beta	ankle_angle_r	subtalar_angle_r	mtp_angle_r	hip_flexion_l	hip_adduction_l	hip_rotation_l	knee_angle_l	knee_angle_l_beta	ankle_angle_l	subtalar_angle_l	mtp_angle_l	L5_S1_Flex_Ext	L5_S1_Lat_Bending	L5_S1_axial_rotation	L4_L5_Flex_Ext	L4_L5_Lat_Bending	L4_L5_axial_rotation	L3_L4_Flex_Ext	L3_L4_Lat_Bending	L3_L4_axial_rotation	L2_L3_Flex_Ext	L2_L3_Lat_Bending	L2_L3_axial_rotation	L1_L2_Flex_Ext	L1_L2_Lat_Bending	L1_L2_axial_rotation	L1_T12_Flex_Ext	L1_T12_Lat_Bending	L1_T12_axial_rotation	Abs_r3	Abs_r2	Abs_r1	Abs_t1	Abs_t2	neck_flexion	neck_bending	neck_rotation	arm_flex_r	arm_add_r	arm_rot_r	elbow_flex_r	pro_sup_r	wrist_flex_r	wrist_dev_r	arm_flex_l	arm_add_l	arm_rot_l	elbow_flex_l	pro_sup_l	wrist_flex_l	wrist_dev_l
      4.01886792	      0.77402723	     -2.92655825	    100.60013618	      0.21813420	      0.90153002	      0.65257115	      4.59543424	      0.33769257	    -14.21552585	      9.49230431	      0.16567196	     28.05458845	      6.59221169	      0.00000000	      5.65464675	     -0.74035452	      0.62062244	      7.58925608	      0.13245751	     24.48196177	      6.35382191	      0.00000000	      0.09306450	     -0.38481050	     -0.57216380	      0.17283008	     -0.51179796	     -0.60792404	      0.15289566	     -0.93562824	     -0.60792404	      0.10636341	     -0.93562824	     -0.50064333	      0.08641969	     -0.78470557	     -0.46488309	      0.05317705	     -0.59607146	     -0.42912285	      0.66475040	     -4.35305331	     -3.18220343	      0.00000000	      0.00000000	     12.70294852	      6.58169579	     -5.95916056	      6.80059306	     -9.66940473	     37.89317870	     21.56825871	     78.18722399	     -3.13523479	     -2.47305901	      5.49373599	    -13.78895169	    113.09060711	      5.31436813	     12.81333047	     -5.87482528	    -11.90876504
      4.03773585	      0.71468080	     -2.81416337	    100.28254572	      0.21887114	      0.90155323	      0.65182311	      4.46955437	      0.35446470	    -13.71597476	      9.56232563	      0.16689407	     27.94349575	      6.21374468	      0.00000000	      5.29706519	     -0.59486939	      3.00588042	      7.27587047	      0.12698790	     24.01031603	      3.21448343	      0.00000000	      0.09690632	     -0.39055323	     -0.51006904	      0.17996473	     -0.51943580	     -0.54194835	      0.15920740	     -0.94959112	     -0.54194835	      0.11075423	     -0.94959112	     -0.44631041	      0.08998721	     -0.79641615	     -0.41443109	      0.05537227	     -0.60496695	     -0.38255178	      0.69219216	     -4.41801625	     -2.83685097	      0.00000000	      0.00000000	     12.44748900	      6.59298461	     -5.78095498	      6.42905917	     -9.74619069	     37.42540620	     21.92826581	     77.89516239	     -2.89957653	     -1.88411626	      5.51783234	    -13.59180788	    115.58652033	      4.89517441	     10.82002903	     -4.79708402	    -11.16843567
      4.05660377	      0.67099759	     -2.75729782	    100.10050013	      0.21958464	      0.90162041	      0.65137841	      4.40614822	      0.34099376	    -13.70934239	      9.67555628	      0.16887031	     27.69061100	      6.21700892	      0.00000000	      5.18941969	     -0.60159347	      3.23442190	      7.33157686	      0.12796016	     23.99812974	      3.35197986	      0.00000000	      0.10374572	     -0.39632499	     -0.50029163	      0.19266617	     -0.52711224	     -0.53155986	      0.17044384	     -0.96362458	     -0.53155986	      0.11857098	     -0.96362458	     -0.43775518	      0.09633827	     -0.80818592	     -0.40648695	      0.05928030	     -0.61390741	     -0.37521873	      0.74104528	     -4.48330754	     -2.78247198	      0.00000000	      0.00000000	     12.34697756	      6.56362495	     -5.75768317	      6.26953105	     -9.74281584	     37.43484261	     21.99072197	     77.89373985	     -2.85722766	     -1.87121379	      5.48529136	    -13.52974004	    115.55337972	      4.90335043	     10.79667655	     -4.74214916	    -11.13839724
      4.07547170	      0.55891498	     -2.59808501	     99.51984985	      0.22045018	      0.90187057	      0.65056759	      4.24956474	      0.40367524	    -11.83585749	      9.77595536	      0.17062261	     27.07443282	      4.12453862	      0.00000000	      4.73852704	     -0.48075091	      4.67418485	      7.05181466	      0.12307738	     23.57766007	      1.37090295	      0.00000000	      0.10786517	     -0.40260202	     -0.36290072	      0.20031641	     -0.53546069	     -0.38558201	      0.17721169	     -0.97888655	     -0.38558201	      0.12327911	     -0.97888655	     -0.31753813	      0.10016360	     -0.82098604	     -0.29485683	      0.06163416	     -0.62363053	     -0.27217554	      0.77047015	     -4.55431456	     -2.01834493	      0.00000000	      0.00000000	     11.61224134	      6.14533521	     -6.12245677	      5.61116144	     -9.94615869	     35.71461080	     22.86955346	     78.79029363	     -2.44767965	     -1.24833001	      5.52443020	    -13.36547390	    113.81769977	      4.71392744	     11.05809094	     -2.97941317	    -10.84496526
      4.09433962	      0.58211320	     -2.48548675	     99.30469201	      0.22078253	      0.90211223	      0.64977578	      4.03554904	      0.63585073	     -9.88422437	      9.63335506	      0.16813376	     26.15327805	      1.37322972	      0.00000000	      4.38286998	     -0.43362450	      6.99372377	      6.75558760	      0.11790725	     22.82914346	     -1.46496955	      0.00000000	      0.12420962	     -0.39284573	     -0.30486880	      0.23066968	     -0.52248482	     -0.32392310	      0.20406398	     -0.95516511	     -0.32392310	      0.14195917	     -0.95516511	     -0.26676020	      0.11534105	     -0.80109102	     -0.24770590	      0.07097338	     -0.60851804	     -0.22865160	      0.88721688	     -4.44394948	     -1.69558878	      0.00000000	      0.00000000	     11.04358778	      5.67492017	     -6.35113300	      4.97396924	     -9.98378474	     33.20624472	     23.51613595	     81.80419913	     -2.22927197	     -1.07071567	      5.49862110	    -13.26733143	    110.68451583	      4.95907111	     13.74573564	     -3.31314273	    -11.17964127
      4.11320755	      0.54515130	     -2.34031839	     99.11709869	      0.22118617	      0.90248946	      0.64910569	      3.81151794	      0.62606379	    -10.02316736	      9.62436971	      0.16797694	     25.91666477	      1.66841188	      0.00000000	      4.10207106	     -0.47557660	      6.92558702	      6.67885199	      0.11656796	     22.70348556	     -1.10220531	      0.00000000	      0.13055195	     -0.39640893	     -0.27358210	      0.24244803	     -0.52722388	     -0.29068098	      0.21448380	     -0.96382867	     -0.29068098	      0.14920782	     -0.96382867	     -0.23938434	      0.12123054	     -0.80835709	     -0.22228546	      0.07459738	     -0.61403743	     -0.20518657	      0.93251952	     -4.48425710	     -1.52158157	      0.00000000	      0.00000000	     10.64146446	      5.24055155	     -7.02711306	      4.93672336	    -10.21457886	     34.14060096	     23.74919591	     81.83356794	     -2.64485618	     -1.39883102	      5.49070883	    -13.29498454	    109.13389902	      5.12119614	     15.05433811	     -3.48770926	    -11.58027014
      4.13207547	      0.54041770	     -2.25412738	     98.90984351	      0.22148948	      0.90266098	      0.64845781	      3.66185797	      0.71939439	     -9.11944388	      9.56115265	      0.16687359	     25.52568752	      0.58821462	      0.00000000	      3.84666729	     -0.43340613	      8.43117730	      6.51932334	      0.11378366	     22.03778429	     -3.46634199	      0.00000000	      0.14014258	     -0.39790759	     -0.23059689	      0.26025879	     -0.52921710	     -0.24500919	      0.23024025	     -0.96747253	     -0.24500919	      0.16016896	     -0.96747253	     -0.20177228	      0.13013640	     -0.81141317	     -0.18735997	      0.08007747	     -0.61635886	     -0.17294767	      1.00102446	     -4.50121029	     -1.28251072	      0.00000000	      0.00000000	     10.65199947	      5.04353012	     -7.79767984	      4.46115193	    -10.19395590	     32.15412696	     24.39606971	     84.56225175	     -2.75087027	     -0.89497186	      5.44486626	    -13.34476150	    106.15190511	      5.38253910	     17.83369048	     -3.93203021	    -11.72786164
